<?xml version="1.0" encoding="utf-8"?><svg width="16" height="16" fill="none" xmlns="http://www.w3.org/2000/svg" viewBox="0 0 16 16"><g clip-path="url(#ea)" stroke="#000" stroke-linecap="round" stroke-linejoin="round"><path d="M8 14.667A6.667 6.667 0 1 0 8 1.334a6.667 6.667 0 0 0 0 13.333Z"/><path d="M10 5.667c-.457-.457-1.26-.774-2-.794m0 0c-.88-.024-1.667.374-1.667 1.46 0 2 3.667 1 3.667 3 0 1.141-.976 1.631-2 1.594m0-6.054V3.667M6 10c.43.573 1.229.9 2 .927m0 0v1.406"/></g><defs><clipPath id="ea"><path fill="#fff" d="M0 0h16v16H0z"/></clipPath></defs></svg>