<?xml version="1.0" encoding="utf-8"?><svg width="20" height="20" fill="none" xmlns="http://www.w3.org/2000/svg" viewBox="0 0 20 20"><path d="M10.46 6.054v-2.19a.46.46 0 0 0-.92 0v2.19a1.862 1.862 0 0 0 0 3.602v6.48a.46.46 0 0 0 .92 0v-6.48c1.847-.472 1.847-3.132 0-3.602ZM10 8.794a.942.942 0 0 1 0-1.88.942.942 0 0 1 0 1.88ZM16.597 10a1.862 1.862 0 0 0-1.4-1.801V3.864a.46.46 0 0 0-.92 0v4.335a1.862 1.862 0 0 0 0 3.602v4.335a.46.46 0 0 0 .92 0v-4.335a1.862 1.862 0 0 0 1.4-1.801Zm-1.841.939a.94.94 0 0 1 0-1.878.939.939 0 1 1-.013 1.878h.013ZM5.723 11.534v-7.67a.46.46 0 1 0-.92 0v7.67a1.862 1.862 0 0 0 0 3.6v1.002a.46.46 0 0 0 .92 0v-1a1.862 1.862 0 0 0 0-3.602Zm-.46 2.743a.942.942 0 0 1 0-1.88.942.942 0 0 1 0 1.88Z" fill="#000"/></svg>