<?xml version="1.0" encoding="utf-8"?><svg width="16" height="17" fill="none" xmlns="http://www.w3.org/2000/svg" viewBox="0 0 16 17"><path d="M10 14.302v-2c0-.42.1-1.307-.333-1.667.926-.087 1.653-.387 2.333-1 .68-.613 1-1.54 1-3 0-1-.167-1.667-.667-2.333.194-.52.227-1.334 0-2-1.04 0-1.98.713-2.333 1-.26-.067-.887-.334-2-.334s-1.74.267-2 .334c-.353-.287-1.293-1-2.333-1-.227.666-.194 1.48 0 2C3.167 4.968 3 5.635 3 6.635c0 1.46.32 2.387 1 3 .68.613 1.407.913 2.333 1C5.9 10.995 6 11.882 6 12.302v2" stroke="#000" stroke-width="1.333" stroke-linecap="round" stroke-linejoin="round"/><path d="M6 12.968c-.94 0-1.893-.373-2.46-.793-.56-.42-.727-1.107-1.54-1.54" stroke="#000" stroke-width="1.333" stroke-linecap="round" stroke-linejoin="round"/></svg>