<?xml version="1.0" encoding="utf-8"?><svg width="30" height="30" fill="none" xmlns="http://www.w3.org/2000/svg" viewBox="0 0 30 30"><path d="M6.712 2.414a1.76 1.76 0 0 0 2.971.908 1.75 1.75 0 0 0 .203-.249c.018-.026.033-.053.05-.08.02-.032.042-.062.06-.095l-.013.005a1.754 1.754 0 0 0-.3-2.07 1.753 1.753 0 0 0-2.07-.3L7.62.521c-.033.017-.064.04-.096.06l-.08.05a1.75 1.75 0 0 0-.764 1.447c0 .112.011.225.033.336ZM11.006 7.133l5.49 5.49a1.759 1.759 0 0 0 2.63-.162l-.012.003a1.753 1.753 0 0 0-.13-2.329l-5.49-5.49a1.756 1.756 0 0 0-1.854-.402l.002-.003c-.007.002-.014.006-.022.01-.025.009-.05.02-.075.031a1.73 1.73 0 0 0-.249.131l-.039.028a1.754 1.754 0 0 0-.637 2.111c.086.212.214.41.386.582ZM18.024 5.88a1.754 1.754 0 0 0 1.906.387c.212-.085.41-.214.582-.386.078-.078.143-.162.203-.248.02-.03.038-.062.057-.094.02-.034.044-.066.062-.1l-.011.004a1.754 1.754 0 0 0-.31-2.05L17.628.51A1.753 1.753 0 0 0 15.58.2l.005-.012c-.035.018-.067.042-.1.062-.032.018-.064.036-.094.057-.087.06-.17.125-.248.202a1.758 1.758 0 0 0 0 2.488l2.882 2.884ZM29.8 15.579l.012.004c-.018-.034-.042-.066-.062-.1a1.728 1.728 0 0 0-.26-.341 1.759 1.759 0 0 0-2.487 0l-2.883 2.882a1.757 1.757 0 0 0 0 2.488c.077.077.161.143.248.202.03.021.062.039.093.058.034.02.066.043.1.061l-.004-.011a1.754 1.754 0 0 0 2.05-.31l2.883-2.883a1.752 1.752 0 0 0 .31-2.05ZM16.894 18.077c.064.332.225.65.483.908.052.051.106.098.162.142l-.003-.012c.69.545 1.691.507 2.329-.13l5.49-5.491c.502-.502.633-1.23.402-1.854l.004.003-.01-.023c-.01-.025-.02-.05-.032-.074a1.78 1.78 0 0 0-.13-.25c-.01-.013-.02-.025-.028-.039a1.72 1.72 0 0 0-1.113-.734 1.757 1.757 0 0 0-1.58.483l-5.49 5.49c-.43.43-.592 1.026-.484 1.58ZM26.678 9.683c.078.077.162.143.249.203.026.018.053.033.08.05.032.02.062.042.095.06l-.005-.013c.665.355 1.508.26 2.07-.3a1.753 1.753 0 0 0 .3-2.07l.012.005c-.017-.033-.04-.063-.06-.095-.016-.027-.032-.054-.05-.08a1.748 1.748 0 0 0-.203-.248 1.76 1.76 0 0 0-2.488 2.488ZM22.806 26.679a1.76 1.76 0 0 0-2.489 0 1.754 1.754 0 0 0-.203.248c-.018.026-.033.053-.05.08-.019.032-.042.063-.06.095l.013-.005a1.753 1.753 0 0 0 .3 2.07 1.753 1.753 0 0 0 2.07.3l-.005.013c.033-.018.063-.04.095-.06.027-.017.054-.032.08-.05a1.74 1.74 0 0 0 .249-.203 1.76 1.76 0 0 0 0-2.488ZM18.994 22.867l-5.49-5.49a1.749 1.749 0 0 0-1.58-.483 1.75 1.75 0 0 0-1.05.645l.012-.003a1.754 1.754 0 0 0 .13 2.329l5.49 5.49c.502.502 1.23.633 1.854.402l-.002.004.022-.01c.026-.01.05-.021.075-.032.086-.037.17-.08.25-.13l.038-.029a1.75 1.75 0 0 0 .734-1.113 1.765 1.765 0 0 0-.483-1.58ZM11.976 24.12a1.757 1.757 0 0 0-2.69.248c-.021.03-.039.061-.057.093-.02.034-.044.066-.062.1l.011-.004a1.754 1.754 0 0 0 .31 2.05l2.883 2.883a1.753 1.753 0 0 0 2.05.31l-.004.012c.035-.018.067-.042.1-.062.032-.019.064-.036.094-.057.087-.06.17-.126.248-.203a1.76 1.76 0 0 0 0-2.488l-2.883-2.883ZM3.805 21.226a1.75 1.75 0 0 0-.732-1.111c-.026-.018-.053-.034-.08-.05-.032-.02-.062-.043-.095-.06l.005.013a1.753 1.753 0 0 0-2.07.3 1.753 1.753 0 0 0-.3 2.07l-.012-.006c.017.033.04.064.06.096l.05.08c.06.087.125.17.202.248a1.76 1.76 0 0 0 2.972-1.58ZM13.01 12.922a1.757 1.757 0 0 0-.55-2.048l.004.012a1.754 1.754 0 0 0-2.328.13l-5.491 5.49a1.755 1.755 0 0 0-.402 1.854l-.004-.002.01.022a1.784 1.784 0 0 0 .163.324l.028.04a1.76 1.76 0 0 0 2.693.251l5.49-5.491a1.74 1.74 0 0 0 .387-.582ZM.25 14.518c.019.031.036.063.057.093a1.723 1.723 0 0 0 1.447.763 1.763 1.763 0 0 0 1.244-.515l2.883-2.883a1.76 1.76 0 0 0 0-2.488 1.726 1.726 0 0 0-.248-.203c-.03-.02-.062-.038-.094-.057-.033-.02-.065-.044-.1-.062l.004.012a1.753 1.753 0 0 0-2.05.31L.51 12.37a1.753 1.753 0 0 0-.31 2.05l-.012-.004c.018.035.042.067.062.1Z" fill="#0F1127"/></svg>