<?xml version="1.0" encoding="utf-8"?><svg width="16" height="16" fill="none" xmlns="http://www.w3.org/2000/svg" viewBox="0 0 16 16"><path fill-rule="evenodd" clip-rule="evenodd" d="M6.21 5.056A10.482 10.482 0 0 1 14.5 1a.5.5 0 0 1 .5.5c0 3.37-1.589 6.37-4.056 8.29A4.5 4.5 0 0 1 6.5 15a.5.5 0 0 1-.5-.5v-2.754A10.562 10.562 0 0 1 4.255 10H1.5a.5.5 0 0 1-.5-.5 4.5 4.5 0 0 1 5.21-4.444ZM10 4.5a1.5 1.5 0 1 0 0 3 1.5 1.5 0 0 0 0-3Z" fill="#1F2226"/><path d="M3.507 11.495a.501.501 0 0 0-.598-.802 3.495 3.495 0 0 0-1.367 3.348.5.5 0 0 0 .417.418 3.496 3.496 0 0 0 3.348-1.368.5.5 0 1 0-.802-.598A2.496 2.496 0 0 1 2.5 13.5c0-.82.395-1.549 1.007-2.005Z" fill="#1F2226"/></svg>