<?xml version="1.0" encoding="utf-8"?><svg width="16" height="16" fill="none" xmlns="http://www.w3.org/2000/svg" viewBox="0 0 16 16"><path d="M10.393 9.58A4 4 0 0 1 6.5 14.5v-3.2m3.893-1.72A9.986 9.986 0 0 0 14.5 1.5a9.987 9.987 0 0 0-8.08 4.107m3.973 3.973A9.947 9.947 0 0 1 6.5 11.3m0 0-.207.04A10.06 10.06 0 0 1 4.66 9.708c.012-.07.025-.139.039-.208m1.72-3.893A4 4 0 0 0 1.5 9.5h3.2m1.72-3.893A9.953 9.953 0 0 0 4.7 9.5m-1.493 1.593a2.995 2.995 0 0 0-1.171 2.871 2.997 2.997 0 0 0 2.87-1.172M11 6a1 1 0 1 1-2 0 1 1 0 0 1 2 0Z" stroke="#000" stroke-linecap="round" stroke-linejoin="round"/></svg>