<?xml version="1.0" encoding="utf-8"?><svg width="16" height="16" fill="none" xmlns="http://www.w3.org/2000/svg" viewBox="0 0 16 16"><path d="M13.5 4.25C13.5 5.769 11.037 7 8 7S2.5 5.769 2.5 4.25m11 0c0-1.519-2.463-2.75-5.5-2.75S2.5 2.731 2.5 4.25m11 0v7.5c0 1.519-2.463 2.75-5.5 2.75s-5.5-1.231-5.5-2.75v-7.5m11 0v2.5m-11-2.5v2.5m11 0v2.5C13.5 10.769 11.037 12 8 12s-5.5-1.231-5.5-2.75v-2.5m11 0c0 1.519-2.463 2.75-5.5 2.75S2.5 8.269 2.5 6.75" stroke="#1F2226" stroke-linecap="round" stroke-linejoin="round"/></svg>