<?xml version="1.0" encoding="utf-8"?><svg width="16" height="16" fill="none" xmlns="http://www.w3.org/2000/svg" viewBox="0 0 16 16"><path d="M14 4.25c0 1.795-2.687 3.25-6 3.25S2 6.045 2 4.25 4.687 1 8 1s6 1.455 6 3.25Z" fill="#000"/><path d="M8 8.5c1.79 0 3.46-.39 4.719-1.073a5.523 5.523 0 0 0 1.264-.922c.011.08.017.162.017.245C14 8.545 11.313 10 8 10S2 8.545 2 6.75c0-.083.006-.165.017-.245.375.366.801.676 1.264.922C4.54 8.11 6.21 8.5 8 8.5Z" fill="#000"/><path d="M8 11c1.79 0 3.46-.39 4.719-1.073a5.522 5.522 0 0 0 1.264-.922c.011.08.017.162.017.245 0 1.795-2.687 3.25-6 3.25s-6-1.455-6-3.25c0-.083.006-.165.017-.245.375.366.801.676 1.264.922C4.54 10.61 6.21 11 8 11Z" fill="#000"/><path d="M8 13.5c1.79 0 3.46-.39 4.719-1.073a5.523 5.523 0 0 0 1.264-.922c.011.08.017.162.017.245C14 13.545 11.313 15 8 15s-6-1.455-6-3.25c0-.083.006-.165.017-.245.375.366.801.676 1.264.922C4.54 13.11 6.21 13.5 8 13.5Z" fill="#000"/></svg>