<?xml version="1.0" encoding="utf-8"?><svg width="20" height="20" fill="none" xmlns="http://www.w3.org/2000/svg" viewBox="0 0 20 20"><path d="M9.48 1.499a.562.562 0 0 1 1.04 0l2.125 5.111a.563.563 0 0 0 .475.345l5.518.442c.499.04.701.663.321.988l-4.204 3.602a.563.563 0 0 0-.182.557l1.285 5.385a.562.562 0 0 1-.84.61l-4.725-2.885a.562.562 0 0 0-.586 0L4.982 18.54a.562.562 0 0 1-.84-.61l1.285-5.386a.562.562 0 0 0-.182-.557L1.041 8.385a.562.562 0 0 1 .321-.988l5.518-.442a.563.563 0 0 0 .475-.345L9.48 1.499Z" stroke="#0F1127" stroke-width="1.5" stroke-linecap="round" stroke-linejoin="round"/></svg>