<?xml version="1.0" encoding="utf-8"?><svg width="32" height="48" fill="none" xmlns="http://www.w3.org/2000/svg" viewBox="0 0 32 48"><path d="M16.584 16.579c-.158.047-.302.13-.421.243-2.417 2.276-4.648 4.37-6.694 6.28a.454.454 0 0 0-.142.342c.007.248.144.419.41.512 1.836.643 3.617 1.275 5.342 1.897a.369.369 0 0 1 .235.273.375.375 0 0 1-.107.345 707.619 707.619 0 0 1-6.69 6.293c-.117.108-.274.1-.47-.027a.312.312 0 0 1-.123-.364l.947-2.834c.128-.379.005-.636-.368-.77L.28 25.82a.418.418 0 0 1-.271-.311.424.424 0 0 1 .124-.395L26.582.216a.778.778 0 0 1 .444-.208c.363-.043.492.098.387.424l-5.343 16.72c-.12.374.002.625.368.754 3.01 1.08 5.864 2.114 8.558 3.103a.845.845 0 0 1 .373.262.294.294 0 0 1-.026.398c-9.278 8.805-18.41 17.49-27.394 26.054-.238.228-.467.315-.688.262-.213-.05-.285-.18-.218-.387l2.568-8.056c.102-.32.283-.607.527-.835L22.055 23.74a.447.447 0 0 0 .032-.614.433.433 0 0 0-.183-.126l-5.655-2.028a.527.527 0 0 1-.32-.656l1.06-3.312a.337.337 0 0 0-.228-.426.33.33 0 0 0-.177.001Z" fill="#1F2226"/></svg>