<?xml version="1.0" encoding="utf-8"?><svg width="16" height="16" fill="none" xmlns="http://www.w3.org/2000/svg" viewBox="0 0 16 16"><path fill-rule="evenodd" clip-rule="evenodd" d="M9.631 2.017a.5.5 0 0 1 .352.614l-3 11a.5.5 0 0 1-.966-.262l3-11a.5.5 0 0 1 .614-.352Zm1.516 2.13a.5.5 0 0 1 .706 0l3.5 3.5a.5.5 0 0 1 0 .706l-3.5 3.5a.5.5 0 1 1-.706-.706L14.293 8l-3.146-3.147a.5.5 0 0 1 0-.706Zm-6.294 0a.5.5 0 0 1 0 .706L1.707 8l3.146 3.147a.5.5 0 0 1-.706.706l-3.5-3.5a.5.5 0 0 1 0-.706l3.5-3.5a.5.5 0 0 1 .706 0Z" fill="#000"/></svg>