<?xml version="1.0" encoding="utf-8"?><svg width="16" height="17" fill="none" xmlns="http://www.w3.org/2000/svg" viewBox="0 0 16 17"><path d="M8 14.302a6.002 6.002 0 0 0 5.81-4.498M8 14.302a6.002 6.002 0 0 1-5.81-4.498M8 14.302c1.657 0 3-2.687 3-6 0-3.314-1.343-6-3-6m0 12c-1.657 0-3-2.687-3-6 0-3.314 1.343-6 3-6m5.81 7.502a6.03 6.03 0 0 0-.581-4.448m.582 4.448A11.946 11.946 0 0 1 8 11.302c-2.108 0-4.089-.544-5.81-1.498m0 0A6.01 6.01 0 0 1 2 8.302c0-1.07.28-2.076.771-2.946M8 2.302a5.998 5.998 0 0 1 5.229 3.054M8 2.302a5.998 5.998 0 0 0-5.229 3.054m10.458 0A7.969 7.969 0 0 1 8 7.302a7.969 7.969 0 0 1-5.229-1.946" stroke="#000" stroke-linecap="round" stroke-linejoin="round"/></svg>