<?xml version="1.0" encoding="utf-8"?><svg xmlns="http://www.w3.org/2000/svg" xmlns:xlink="http://www.w3.org/1999/xlink"><symbol fill="none" viewBox="0 0 16 16" id="add" xmlns="http://www.w3.org/2000/svg"><path fill-rule="evenodd" clip-rule="evenodd" d="M8 2.5a.5.5 0 0 1 .5.5v4.5H13a.5.5 0 0 1 0 1H8.5V13a.5.5 0 0 1-1 0V8.5H3a.5.5 0 1 1 0-1h4.5V3a.5.5 0 0 1 .5-.5Z" fill="#000"/></symbol><symbol fill="none" viewBox="0 0 16 16" id="arrow" xmlns="http://www.w3.org/2000/svg"><path d="m13 5.5-5 5-5-5" stroke="#0F1127" stroke-width="1.5" stroke-linecap="round" stroke-linejoin="round"/></symbol><symbol fill="none" viewBox="0 0 12 12" id="arrow-link" xmlns="http://www.w3.org/2000/svg"><path fill-rule="evenodd" clip-rule="evenodd" d="M4.125 1.875H9.75a.375.375 0 0 1 .375.375v5.625a.375.375 0 1 1-.75 0v-4.72l-6.86 6.86a.375.375 0 0 1-.53-.53l6.86-6.86h-4.72a.375.375 0 0 1 0-.75Z" fill="#000"/></symbol><symbol fill="none" viewBox="0 0 16 16" id="close" xmlns="http://www.w3.org/2000/svg"><path fill-rule="evenodd" clip-rule="evenodd" d="M3.647 3.647a.5.5 0 0 1 .706 0L8 7.293l3.647-3.646a.5.5 0 1 1 .706.706L8.707 8l3.646 3.647a.498.498 0 0 1-.153.83.5.5 0 0 1-.553-.124L8 8.707l-3.647 3.646a.5.5 0 0 1-.706-.706L7.293 8 3.647 4.353a.5.5 0 0 1 0-.706Z" fill="#000"/></symbol><symbol fill="none" viewBox="0 0 16 16" id="coin" xmlns="http://www.w3.org/2000/svg"><g clip-path="url(#ea)" stroke="#000" stroke-linecap="round" stroke-linejoin="round"><path d="M8 14.667A6.667 6.667 0 1 0 8 1.334a6.667 6.667 0 0 0 0 13.333Z"/><path d="M10 5.667c-.457-.457-1.26-.774-2-.794m0 0c-.88-.024-1.667.374-1.667 1.46 0 2 3.667 1 3.667 3 0 1.141-.976 1.631-2 1.594m0-6.054V3.667M6 10c.43.573 1.229.9 2 .927m0 0v1.406"/></g><defs><clipPath id="ea"><path fill="#fff" d="M0 0h16v16H0z"/></clipPath></defs></symbol><symbol fill="none" viewBox="0 0 16 16" id="download" xmlns="http://www.w3.org/2000/svg"><path d="M8 1a.5.5 0 0 1 .5.5V5h-1V1.5A.5.5 0 0 1 8 1Zm-.5 4v3.793L6.353 7.647a.5.5 0 0 0-.706.706l2 2a.5.5 0 0 0 .706 0l2-2a.499.499 0 0 0-.35-.865.5.5 0 0 0-.356.159L8.5 8.793V5H11a2 2 0 0 1 2 2v6a2 2 0 0 1-2 2H5a2 2 0 0 1-2-2V7a2 2 0 0 1 2-2h2.5Z" fill="#000"/></symbol><symbol fill="none" viewBox="0 0 20 20" id="filter" xmlns="http://www.w3.org/2000/svg"><path d="M10.46 6.054v-2.19a.46.46 0 0 0-.92 0v2.19a1.862 1.862 0 0 0 0 3.602v6.48a.46.46 0 0 0 .92 0v-6.48c1.847-.472 1.847-3.132 0-3.602ZM10 8.794a.942.942 0 0 1 0-1.88.942.942 0 0 1 0 1.88ZM16.597 10a1.862 1.862 0 0 0-1.4-1.801V3.864a.46.46 0 0 0-.92 0v4.335a1.862 1.862 0 0 0 0 3.602v4.335a.46.46 0 0 0 .92 0v-4.335a1.862 1.862 0 0 0 1.4-1.801Zm-1.841.939a.94.94 0 0 1 0-1.878.939.939 0 1 1-.013 1.878h.013ZM5.723 11.534v-7.67a.46.46 0 1 0-.92 0v7.67a1.862 1.862 0 0 0 0 3.6v1.002a.46.46 0 0 0 .92 0v-1a1.862 1.862 0 0 0 0-3.602Zm-.46 2.743a.942.942 0 0 1 0-1.88.942.942 0 0 1 0 1.88Z" fill="#000"/></symbol><symbol fill="none" viewBox="0 0 16 17" id="github" xmlns="http://www.w3.org/2000/svg"><path d="M10 14.302v-2c0-.42.1-1.307-.333-1.667.926-.087 1.653-.387 2.333-1 .68-.613 1-1.54 1-3 0-1-.167-1.667-.667-2.333.194-.52.227-1.334 0-2-1.04 0-1.98.713-2.333 1-.26-.067-.887-.334-2-.334s-1.74.267-2 .334c-.353-.287-1.293-1-2.333-1-.227.666-.194 1.48 0 2C3.167 4.968 3 5.635 3 6.635c0 1.46.32 2.387 1 3 .68.613 1.407.913 2.333 1C5.9 10.995 6 11.882 6 12.302v2" stroke="#000" stroke-width="1.333" stroke-linecap="round" stroke-linejoin="round"/><path d="M6 12.968c-.94 0-1.893-.373-2.46-.793-.56-.42-.727-1.107-1.54-1.54" stroke="#000" stroke-width="1.333" stroke-linecap="round" stroke-linejoin="round"/></symbol><symbol fill="none" viewBox="0 0 30 30" id="logo" xmlns="http://www.w3.org/2000/svg"><path d="M6.712 2.414a1.76 1.76 0 0 0 2.971.908 1.75 1.75 0 0 0 .203-.249c.018-.026.033-.053.05-.08.02-.032.042-.062.06-.095l-.013.005a1.754 1.754 0 0 0-.3-2.07 1.753 1.753 0 0 0-2.07-.3L7.62.521c-.033.017-.064.04-.096.06l-.08.05a1.75 1.75 0 0 0-.764 1.447c0 .112.011.225.033.336ZM11.006 7.133l5.49 5.49a1.759 1.759 0 0 0 2.63-.162l-.012.003a1.753 1.753 0 0 0-.13-2.329l-5.49-5.49a1.756 1.756 0 0 0-1.854-.402l.002-.003c-.007.002-.014.006-.022.01-.025.009-.05.02-.075.031a1.73 1.73 0 0 0-.249.131l-.039.028a1.754 1.754 0 0 0-.637 2.111c.086.212.214.41.386.582ZM18.024 5.88a1.754 1.754 0 0 0 1.906.387c.212-.085.41-.214.582-.386.078-.078.143-.162.203-.248.02-.03.038-.062.057-.094.02-.034.044-.066.062-.1l-.011.004a1.754 1.754 0 0 0-.31-2.05L17.628.51A1.753 1.753 0 0 0 15.58.2l.005-.012c-.035.018-.067.042-.1.062-.032.018-.064.036-.094.057-.087.06-.17.125-.248.202a1.758 1.758 0 0 0 0 2.488l2.882 2.884ZM29.8 15.579l.012.004c-.018-.034-.042-.066-.062-.1a1.728 1.728 0 0 0-.26-.341 1.759 1.759 0 0 0-2.487 0l-2.883 2.882a1.757 1.757 0 0 0 0 2.488c.077.077.161.143.248.202.03.021.062.039.093.058.034.02.066.043.1.061l-.004-.011a1.754 1.754 0 0 0 2.05-.31l2.883-2.883a1.752 1.752 0 0 0 .31-2.05ZM16.894 18.077c.064.332.225.65.483.908.052.051.106.098.162.142l-.003-.012c.69.545 1.691.507 2.329-.13l5.49-5.491c.502-.502.633-1.23.402-1.854l.004.003-.01-.023c-.01-.025-.02-.05-.032-.074a1.78 1.78 0 0 0-.13-.25c-.01-.013-.02-.025-.028-.039a1.72 1.72 0 0 0-1.113-.734 1.757 1.757 0 0 0-1.58.483l-5.49 5.49c-.43.43-.592 1.026-.484 1.58ZM26.678 9.683c.078.077.162.143.249.203.026.018.053.033.08.05.032.02.062.042.095.06l-.005-.013c.665.355 1.508.26 2.07-.3a1.753 1.753 0 0 0 .3-2.07l.012.005c-.017-.033-.04-.063-.06-.095-.016-.027-.032-.054-.05-.08a1.748 1.748 0 0 0-.203-.248 1.76 1.76 0 0 0-2.488 2.488ZM22.806 26.679a1.76 1.76 0 0 0-2.489 0 1.754 1.754 0 0 0-.203.248c-.018.026-.033.053-.05.08-.019.032-.042.063-.06.095l.013-.005a1.753 1.753 0 0 0 .3 2.07 1.753 1.753 0 0 0 2.07.3l-.005.013c.033-.018.063-.04.095-.06.027-.017.054-.032.08-.05a1.74 1.74 0 0 0 .249-.203 1.76 1.76 0 0 0 0-2.488ZM18.994 22.867l-5.49-5.49a1.749 1.749 0 0 0-1.58-.483 1.75 1.75 0 0 0-1.05.645l.012-.003a1.754 1.754 0 0 0 .13 2.329l5.49 5.49c.502.502 1.23.633 1.854.402l-.002.004.022-.01c.026-.01.05-.021.075-.032.086-.037.17-.08.25-.13l.038-.029a1.75 1.75 0 0 0 .734-1.113 1.765 1.765 0 0 0-.483-1.58ZM11.976 24.12a1.757 1.757 0 0 0-2.69.248c-.021.03-.039.061-.057.093-.02.034-.044.066-.062.1l.011-.004a1.754 1.754 0 0 0 .31 2.05l2.883 2.883a1.753 1.753 0 0 0 2.05.31l-.004.012c.035-.018.067-.042.1-.062.032-.019.064-.036.094-.057.087-.06.17-.126.248-.203a1.76 1.76 0 0 0 0-2.488l-2.883-2.883ZM3.805 21.226a1.75 1.75 0 0 0-.732-1.111c-.026-.018-.053-.034-.08-.05-.032-.02-.062-.043-.095-.06l.005.013a1.753 1.753 0 0 0-2.07.3 1.753 1.753 0 0 0-.3 2.07l-.012-.006c.017.033.04.064.06.096l.05.08c.06.087.125.17.202.248a1.76 1.76 0 0 0 2.972-1.58ZM13.01 12.922a1.757 1.757 0 0 0-.55-2.048l.004.012a1.754 1.754 0 0 0-2.328.13l-5.491 5.49a1.755 1.755 0 0 0-.402 1.854l-.004-.002.01.022a1.784 1.784 0 0 0 .163.324l.028.04a1.76 1.76 0 0 0 2.693.251l5.49-5.491a1.74 1.74 0 0 0 .387-.582ZM.25 14.518c.019.031.036.063.057.093a1.723 1.723 0 0 0 1.447.763 1.763 1.763 0 0 0 1.244-.515l2.883-2.883a1.76 1.76 0 0 0 0-2.488 1.726 1.726 0 0 0-.248-.203c-.03-.02-.062-.038-.094-.057-.033-.02-.065-.044-.1-.062l.004.012a1.753 1.753 0 0 0-2.05.31L.51 12.37a1.753 1.753 0 0 0-.31 2.05l-.012-.004c.018.035.042.067.062.1Z" fill="#0F1127"/></symbol><symbol fill="none" viewBox="0 0 16 16" id="pin" xmlns="http://www.w3.org/2000/svg"><path d="M11.729 2.215C12.462 2.3 13 2.933 13 3.67V14l-5-2.5L3 14V3.671c0-.738.537-1.371 1.271-1.456a32.338 32.338 0 0 1 7.458 0Z" stroke="#000" stroke-linecap="round" stroke-linejoin="round"/></symbol><symbol fill="none" viewBox="0 0 16 16" id="pools" xmlns="http://www.w3.org/2000/svg"><path d="M10.393 9.58A4 4 0 0 1 6.5 14.5v-3.2m3.893-1.72A9.986 9.986 0 0 0 14.5 1.5a9.987 9.987 0 0 0-8.08 4.107m3.973 3.973A9.947 9.947 0 0 1 6.5 11.3m0 0-.207.04A10.06 10.06 0 0 1 4.66 9.708c.012-.07.025-.139.039-.208m1.72-3.893A4 4 0 0 0 1.5 9.5h3.2m1.72-3.893A9.953 9.953 0 0 0 4.7 9.5m-1.493 1.593a2.995 2.995 0 0 0-1.171 2.871 2.997 2.997 0 0 0 2.87-1.172M11 6a1 1 0 1 1-2 0 1 1 0 0 1 2 0Z" stroke="#000" stroke-linecap="round" stroke-linejoin="round"/></symbol><symbol fill="none" viewBox="0 0 16 16" id="pools-active" xmlns="http://www.w3.org/2000/svg"><path fill-rule="evenodd" clip-rule="evenodd" d="M6.21 5.056A10.482 10.482 0 0 1 14.5 1a.5.5 0 0 1 .5.5c0 3.37-1.589 6.37-4.056 8.29A4.5 4.5 0 0 1 6.5 15a.5.5 0 0 1-.5-.5v-2.754A10.562 10.562 0 0 1 4.255 10H1.5a.5.5 0 0 1-.5-.5 4.5 4.5 0 0 1 5.21-4.444ZM10 4.5a1.5 1.5 0 1 0 0 3 1.5 1.5 0 0 0 0-3Z" fill="#1F2226"/><path d="M3.507 11.495a.501.501 0 0 0-.598-.802 3.495 3.495 0 0 0-1.367 3.348.5.5 0 0 0 .417.418 3.496 3.496 0 0 0 3.348-1.368.5.5 0 1 0-.802-.598A2.496 2.496 0 0 1 2.5 13.5c0-.82.395-1.549 1.007-2.005Z" fill="#1F2226"/></symbol><symbol fill="none" viewBox="0 0 16 16" id="protocols" xmlns="http://www.w3.org/2000/svg"><path d="M13.5 4.25C13.5 5.769 11.037 7 8 7S2.5 5.769 2.5 4.25m11 0c0-1.519-2.463-2.75-5.5-2.75S2.5 2.731 2.5 4.25m11 0v7.5c0 1.519-2.463 2.75-5.5 2.75s-5.5-1.231-5.5-2.75v-7.5m11 0v2.5m-11-2.5v2.5m11 0v2.5C13.5 10.769 11.037 12 8 12s-5.5-1.231-5.5-2.75v-2.5m11 0c0 1.519-2.463 2.75-5.5 2.75S2.5 8.269 2.5 6.75" stroke="#1F2226" stroke-linecap="round" stroke-linejoin="round"/></symbol><symbol fill="none" viewBox="0 0 16 16" id="protocols-active" xmlns="http://www.w3.org/2000/svg"><path d="M14 4.25c0 1.795-2.687 3.25-6 3.25S2 6.045 2 4.25 4.687 1 8 1s6 1.455 6 3.25Z" fill="#000"/><path d="M8 8.5c1.79 0 3.46-.39 4.719-1.073a5.523 5.523 0 0 0 1.264-.922c.011.08.017.162.017.245C14 8.545 11.313 10 8 10S2 8.545 2 6.75c0-.083.006-.165.017-.245.375.366.801.676 1.264.922C4.54 8.11 6.21 8.5 8 8.5Z" fill="#000"/><path d="M8 11c1.79 0 3.46-.39 4.719-1.073a5.522 5.522 0 0 0 1.264-.922c.011.08.017.162.017.245 0 1.795-2.687 3.25-6 3.25s-6-1.455-6-3.25c0-.083.006-.165.017-.245.375.366.801.676 1.264.922C4.54 10.61 6.21 11 8 11Z" fill="#000"/><path d="M8 13.5c1.79 0 3.46-.39 4.719-1.073a5.523 5.523 0 0 0 1.264-.922c.011.08.017.162.017.245C14 13.545 11.313 15 8 15s-6-1.455-6-3.25c0-.083.006-.165.017-.245.375.366.801.676 1.264.922C4.54 13.11 6.21 13.5 8 13.5Z" fill="#000"/></symbol><symbol fill="none" viewBox="0 0 14 14" id="search" xmlns="http://www.w3.org/2000/svg"><path fill-rule="evenodd" clip-rule="evenodd" d="M5.5 1.5a4.5 4.5 0 1 0 0 9 4.5 4.5 0 0 0 0-9ZM0 6a5.5 5.5 0 1 1 9.727 3.52l3.126 3.127a.497.497 0 0 1 .013.719.5.5 0 0 1-.72-.013L9.02 10.227A5.5 5.5 0 0 1 0 6Z" fill="#BABABA"/></symbol><symbol fill="none" viewBox="0 0 20 20" id="star" xmlns="http://www.w3.org/2000/svg"><path d="M9.48 1.499a.562.562 0 0 1 1.04 0l2.125 5.111a.563.563 0 0 0 .475.345l5.518.442c.499.04.701.663.321.988l-4.204 3.602a.563.563 0 0 0-.182.557l1.285 5.385a.562.562 0 0 1-.84.61l-4.725-2.885a.562.562 0 0 0-.586 0L4.982 18.54a.562.562 0 0 1-.84-.61l1.285-5.386a.562.562 0 0 0-.182-.557L1.041 8.385a.562.562 0 0 1 .321-.988l5.518-.442a.563.563 0 0 0 .475-.345L9.48 1.499Z" stroke="#0F1127" stroke-width="1.5" stroke-linecap="round" stroke-linejoin="round"/></symbol><symbol fill="none" viewBox="0 0 32 48" id="super-logo" xmlns="http://www.w3.org/2000/svg"><path d="M16.584 16.579c-.158.047-.302.13-.421.243-2.417 2.276-4.648 4.37-6.694 6.28a.454.454 0 0 0-.142.342c.007.248.144.419.41.512 1.836.643 3.617 1.275 5.342 1.897a.369.369 0 0 1 .235.273.375.375 0 0 1-.107.345 707.619 707.619 0 0 1-6.69 6.293c-.117.108-.274.1-.47-.027a.312.312 0 0 1-.123-.364l.947-2.834c.128-.379.005-.636-.368-.77L.28 25.82a.418.418 0 0 1-.271-.311.424.424 0 0 1 .124-.395L26.582.216a.778.778 0 0 1 .444-.208c.363-.043.492.098.387.424l-5.343 16.72c-.12.374.002.625.368.754 3.01 1.08 5.864 2.114 8.558 3.103a.845.845 0 0 1 .373.262.294.294 0 0 1-.026.398c-9.278 8.805-18.41 17.49-27.394 26.054-.238.228-.467.315-.688.262-.213-.05-.285-.18-.218-.387l2.568-8.056c.102-.32.283-.607.527-.835L22.055 23.74a.447.447 0 0 0 .032-.614.433.433 0 0 0-.183-.126l-5.655-2.028a.527.527 0 0 1-.32-.656l1.06-3.312a.337.337 0 0 0-.228-.426.33.33 0 0 0-.177.001Z" fill="#1F2226"/></symbol><symbol fill="none" viewBox="0 0 16 16" id="tag" xmlns="http://www.w3.org/2000/svg"><path fill-rule="evenodd" clip-rule="evenodd" d="M9.631 2.017a.5.5 0 0 1 .352.614l-3 11a.5.5 0 0 1-.966-.262l3-11a.5.5 0 0 1 .614-.352Zm1.516 2.13a.5.5 0 0 1 .706 0l3.5 3.5a.5.5 0 0 1 0 .706l-3.5 3.5a.5.5 0 1 1-.706-.706L14.293 8l-3.146-3.147a.5.5 0 0 1 0-.706Zm-6.294 0a.5.5 0 0 1 0 .706L1.707 8l3.146 3.147a.5.5 0 0 1-.706.706l-3.5-3.5a.5.5 0 0 1 0-.706l3.5-3.5a.5.5 0 0 1 .706 0Z" fill="#000"/></symbol><symbol fill="none" viewBox="0 0 24 24" id="tether" xmlns="http://www.w3.org/2000/svg"><path d="M12 24c6.627 0 12-5.373 12-12S18.627 0 12 0 0 5.373 0 12s5.373 12 12 12Z" fill="#26A17B"/><path fill-rule="evenodd" clip-rule="evenodd" d="M13.442 13.037v-.001c-.083.006-.508.031-1.457.031a31.6 31.6 0 0 1-1.478-.031v.002c-2.916-.128-5.093-.636-5.093-1.244 0-.607 2.177-1.114 5.093-1.245v1.984c.19.013.736.045 1.49.045.906 0 1.36-.037 1.445-.045v-1.982c2.91.13 5.08.637 5.08 1.243 0 .608-2.17 1.114-5.08 1.243Zm0-2.692V8.57h4.06V5.864H6.446V8.57h4.06v1.774c-3.3.152-5.78.806-5.78 1.588 0 .784 2.48 1.437 5.78 1.589v5.686h2.936V13.52c3.294-.151 5.77-.804 5.77-1.587 0-.782-2.476-1.435-5.77-1.587Z" fill="#fff"/></symbol><symbol fill="none" viewBox="0 0 16 17" id="twitter" xmlns="http://www.w3.org/2000/svg"><g clip-path="url(#ta)"><mask id="tb" style="mask-type:luminance" maskUnits="userSpaceOnUse" x="0" y="0" width="16" height="17"><path d="M0 .302h16v16H0v-16Z" fill="#fff"/></mask><g mask="url(#tb)"><path d="M12.6 1.051h2.454l-5.36 6.142L16 15.552h-4.937l-3.87-5.069-4.423 5.069H.314L6.047 8.98 0 1.052h5.063l3.492 4.632L12.6 1.051Zm-.863 13.029h1.36L4.32 2.447H2.862l8.875 11.633Z" fill="#000"/></g></g><defs><clipPath id="ta"><path fill="#fff" transform="translate(0 .302)" d="M0 0h16v16H0z"/></clipPath></defs></symbol><symbol fill="none" viewBox="0 0 16 17" id="web" xmlns="http://www.w3.org/2000/svg"><path d="M8 14.302a6.002 6.002 0 0 0 5.81-4.498M8 14.302a6.002 6.002 0 0 1-5.81-4.498M8 14.302c1.657 0 3-2.687 3-6 0-3.314-1.343-6-3-6m0 12c-1.657 0-3-2.687-3-6 0-3.314 1.343-6 3-6m5.81 7.502a6.03 6.03 0 0 0-.581-4.448m.582 4.448A11.946 11.946 0 0 1 8 11.302c-2.108 0-4.089-.544-5.81-1.498m0 0A6.01 6.01 0 0 1 2 8.302c0-1.07.28-2.076.771-2.946M8 2.302a5.998 5.998 0 0 1 5.229 3.054M8 2.302a5.998 5.998 0 0 0-5.229 3.054m10.458 0A7.969 7.969 0 0 1 8 7.302a7.969 7.969 0 0 1-5.229-1.946" stroke="#000" stroke-linecap="round" stroke-linejoin="round"/></symbol></svg>